PathFileType	4	(X/Y/Z)	D:\TRACE\v60_Jaco2_6-2-23\v60_baseline_3-v60.trc
DataRate	CameraRate	NumFrames	NumMarkers	Units	OrigDataRate	OrigDataStartFrame	OrigNumFrames
100.00	100.00	      34	9	mm	100.00	4063	      6500
Frame#	Time	front left toe			Front right toe			aft left toe			aft right toe			Arm			FL body			FR body			AL Body			AR Body			
		X1	Y1	Z1	X2	Y2	Z2	X3	Y3	Z3	X4	Y4	Z4	X5	Y5	Z5	X6	Y6	Z6	X7	Y7	Z7	X8	Y8	Z8	X9	Y9	Z9	

4063	40.620	-162.32700	18.03527	-383.77884	208.96947	78.97948	-373.40326	-164.92148	87.75603	256.50876	224.59879	15.85074	235.41600	-85.59103	1211.29944	-501.21347	-55.60147	579.88879	-508.19077	103.77172	581.06146	-510.87576	-41.20102	560.41681	437.79010	116.69565	554.83447	436.59061	
4064	40.630	-162.43436	18.06160	-383.77087	208.32899	70.49912	-373.13928	-165.45351	79.51744	256.67773	224.56389	15.83011	235.46004	-86.19768	1211.26746	-500.71661	-56.49411	580.09442	-507.79254	103.13586	581.09747	-510.11517	-41.59003	559.82324	438.22336	116.40153	554.53412	436.95383	
4065	40.640	-162.48250	17.97690	-383.72687	208.29089	61.47570	-371.98129	-166.03247	71.18580	257.38574	224.44086	15.75051	235.42520	-86.55959	1211.09497	-500.07080	-57.24628	579.93903	-507.23080	103.01763	581.46997	-510.61865	-41.66161	559.65161	438.58340	116.26564	554.35950	437.50513	
4066	40.650	-162.52264	17.76990	-383.70490	208.45473	52.84269	-371.38126	-166.73433	62.46770	258.35184	224.38864	15.72617	235.44186	-86.94128	1211.02881	-499.23135	-58.02520	580.12610	-506.73502	102.64332	581.23767	-509.47638	-41.89679	559.65491	439.34186	115.70279	554.31018	438.27972	
4067	40.660	-162.53030	17.70426	-383.66089	208.41454	44.71444	-370.31879	-166.98277	54.32605	258.80917	224.39357	15.77649	235.45689	-86.72786	1212.28796	-498.61465	-58.56342	580.21112	-506.20099	101.66729	580.98383	-508.79993	-42.33581	559.38281	440.07086	115.52007	554.22144	438.86151	
4068	40.670	-162.65474	17.75609	-383.60553	208.35760	36.94769	-369.18073	-167.17017	46.74963	259.94873	224.35451	15.82035	235.50945	-88.72956	1211.10217	-498.17728	-59.26180	580.29645	-505.57574	101.79951	581.42719	-508.62817	-42.66069	559.50519	440.30820	115.15357	554.14362	439.33215	
4069	40.680	-162.74840	17.85817	-383.53073	207.80254	30.13086	-368.26175	-167.77234	40.13177	260.62381	224.40312	15.91367	235.60498	-89.49477	1211.17761	-497.27377	-58.98281	579.87195	-504.66678	100.86398	581.28479	-507.97598	-43.21367	559.32764	441.28638	114.60162	554.00873	439.92404	
4070	40.690	-162.78261	17.82760	-383.52686	207.05429	23.73560	-367.46970	-168.03197	33.38054	261.36545	224.27805	15.89676	235.62459	-90.33667	1211.17651	-496.47269	-59.52774	579.91608	-503.86774	100.10440	581.26196	-506.98929	-43.79718	559.08618	441.77948	114.21854	553.76624	440.52570	
4071	40.700	-162.68117	17.66564	-383.42529	206.86540	20.04368	-368.49393	-169.10889	26.88724	261.97958	224.29787	15.87811	235.61296	-90.92883	1210.81946	-496.12784	-60.90093	580.20398	-503.64676	99.84391	581.39429	-506.47717	-44.27440	558.60809	442.27045	113.53857	553.68066	441.24219	
4072	40.710	-162.54881	17.43353	-383.42099	207.50890	17.41361	-368.10962	-170.04816	20.17811	262.21075	224.36612	15.96803	235.69522	-91.75461	1211.27783	-494.94373	-61.46976	580.32263	-502.87280	99.18092	581.79285	-506.03983	-44.85079	558.20062	442.79953	113.02200	553.47418	442.09665	
4073	40.720	-162.41676	17.47649	-383.26358	207.82475	17.89491	-369.44504	-170.31520	18.44226	260.08286	224.32036	16.01403	235.76619	-92.76955	1211.70190	-493.96063	-61.36920	580.58783	-501.59274	97.97627	582.63318	-504.70523	-45.62505	557.79456	443.66205	112.38108	553.78497	443.52502	
4074	40.730	-162.47224	17.69856	-383.69128	207.54649	18.37612	-369.08066	-171.59816	17.71546	260.23083	224.29359	16.33088	235.65448	-94.22964	1212.46399	-492.85593	-62.89432	582.06647	-501.28351	97.78016	583.56897	-504.36194	-45.86084	558.62921	444.50803	111.20213	554.26929	443.39310	
4075	40.740	-162.59654	18.22057	-383.27484	206.75648	19.13140	-368.43451	-171.30415	16.85888	261.45264	224.05702	17.16272	235.51712	-96.14431	1213.62903	-491.47235	-62.77871	581.94861	-499.99545	96.32170	583.76672	-503.07965	-47.23186	560.68750	445.79193	111.01147	555.87140	445.12238	
4076	40.750	-162.60762	21.10185	-383.14035	206.04411	18.12712	-367.25803	-171.25343	16.07900	262.00424	223.22493	19.70822	236.54065	-96.92927	1215.20459	-489.63583	-64.59413	582.89294	-499.71048	95.36623	584.70697	-502.70105	-46.99249	561.51453	446.24368	110.70759	556.50439	445.92966	
4077	40.760	-159.89708	24.52745	-379.76807	206.37956	18.55614	-368.26065	-171.41788	15.77108	261.37048	219.97586	22.21420	240.17311	-100.37923	1214.69507	-489.07809	-65.55384	583.55896	-498.97754	94.86742	585.59326	-502.18134	-47.48194	561.12903	446.89828	109.95747	556.50568	446.45636	
4078	40.770	-156.61623	29.10664	-376.15244	206.42780	18.14930	-368.34143	-171.57637	15.70248	261.41061	216.41399	27.58557	242.89676	-100.57285	1215.43860	-489.31693	-66.20531	583.88586	-498.64832	94.08504	585.85736	-501.31549	-48.13700	560.93878	447.31238	109.08913	556.32562	446.14160	
4079	40.780	-154.82443	38.30952	-374.95261	206.44327	17.92249	-368.32367	-171.50035	15.69649	261.54993	214.28870	35.31109	243.95555	-100.53119	1215.61926	-489.17856	-66.69669	583.94843	-498.11142	93.81920	585.94330	-501.03671	-48.60806	561.12189	447.69617	109.30701	556.48486	445.74319	
4080	40.790	-154.15915	47.22674	-374.19263	206.47359	17.87928	-368.26041	-171.49774	15.60106	261.60098	212.83965	46.04339	243.25053	-100.73618	1215.38245	-488.65234	-67.27814	583.85950	-497.68329	93.32975	585.89703	-500.75250	-49.34750	561.09906	448.16727	108.88243	556.54510	446.22958	
4081	40.800	-155.93622	58.27078	-375.02524	206.42317	17.78140	-368.14001	-171.63989	15.37690	261.69928	213.36433	56.76090	243.21141	-101.11788	1214.44788	-488.11652	-66.86942	583.40924	-497.00583	93.13020	585.83435	-500.55945	-51.24992	560.72858	449.04187	107.96788	556.91992	447.60144	
4082	40.810	-157.87541	69.53622	-374.88623	206.49550	17.60611	-368.05984	-171.88380	15.05471	261.78870	214.33519	68.69294	243.45883	-102.15216	1213.52942	-488.02094	-66.60640	582.85669	-496.64362	92.78153	585.30823	-499.55011	-52.88788	560.58661	449.28247	106.96670	555.74585	447.34387	
4083	40.820	-160.08273	80.87805	-374.95499	206.54474	17.42326	-367.99048	-171.99655	14.88777	261.68320	214.91623	79.87367	243.89452	-103.33772	1213.26270	-487.10172	-67.51701	582.41815	-497.02954	92.76460	584.83972	-499.13748	-52.90881	559.63367	449.46872	105.64286	555.30176	447.67252	
4084	40.830	-161.61423	92.09267	-374.13257	206.53267	17.18104	-367.92725	-171.99722	14.65247	261.53555	214.41435	90.76068	245.62881	-104.63398	1212.62488	-486.50769	-67.26891	582.05945	-496.80823	92.79412	584.34003	-498.72742	-53.73272	559.08691	449.08578	104.84231	555.15613	448.00888	
4085	40.840	-162.69011	102.76272	-373.02698	206.68756	17.08992	-367.68640	-172.00482	14.50004	261.66617	213.12639	101.02271	247.36337	-103.91679	1212.83521	-487.08447	-67.01659	581.43219	-496.23325	93.41392	583.84314	-498.69324	-53.96926	558.88092	449.29822	104.26147	554.98779	448.46695	
4086	40.850	-163.37526	112.68526	-371.76053	206.66704	16.98457	-367.55734	-172.02835	14.50996	261.87112	210.79317	110.54990	249.36432	-103.47354	1212.03259	-487.02542	-66.72399	580.63843	-495.81271	93.21969	583.53839	-498.48843	-54.61547	559.12347	450.44644	103.10720	554.86310	448.77277	
4087	40.860	-163.95198	121.36341	-370.60577	206.71472	17.08730	-367.42767	-172.12926	14.49278	261.94794	208.98474	119.28999	250.93217	-103.41245	1211.37622	-487.39948	-67.52731	580.29205	-495.87305	93.10410	583.18933	-497.95450	-55.39049	558.82489	450.54230	102.66241	554.85852	449.10507	
4088	40.870	-164.50589	128.66292	-369.28568	206.68390	17.07403	-367.37222	-172.20114	14.38429	261.90347	207.69460	127.03248	252.31335	-103.19984	1210.39160	-488.33820	-67.44900	579.76715	-495.57455	93.01970	582.52570	-497.62000	-55.82670	558.68970	450.51599	101.70784	554.83984	449.25107	
4089	40.880	-165.93086	135.03349	-368.19257	206.77669	17.08352	-367.31146	-172.25549	14.24764	261.87134	207.57318	133.43312	253.44957	-103.33701	1209.92859	-488.39728	-66.79448	579.20380	-495.10806	93.00483	582.04645	-497.29504	-56.83825	558.63812	450.49753	100.76807	555.24976	450.05692	
4090	40.890	-168.02788	140.25145	-367.17307	206.83444	17.01676	-367.18848	-172.30135	14.20009	261.87152	207.38446	138.78175	254.68784	-103.61734	1209.74829	-488.70767	-66.56760	578.67505	-494.88022	92.74991	581.48322	-496.76660	-57.77446	558.85663	450.87802	100.34068	555.16138	450.07581	
4091	40.900	-169.91866	143.71298	-366.44403	206.83385	16.98151	-367.13849	-172.34303	14.22309	261.86832	206.90895	142.84412	255.01903	-103.55734	1209.67456	-488.89722	-66.34621	578.29102	-494.66464	92.99072	581.29132	-496.55554	-58.32681	559.24451	451.05380	99.70363	555.52252	450.41705	
4092	40.910	-171.35243	144.98869	-365.45331	206.85339	16.98540	-367.02063	-172.36646	14.40659	261.90182	206.35162	143.57552	256.37506	-103.27792	1209.36072	-489.20148	-66.27829	578.15137	-494.49142	93.07227	580.97272	-495.96017	-58.87299	559.67627	451.08569	98.77901	555.91461	450.69672	
4093	40.920	-172.07352	142.18367	-364.17044	206.85677	16.94417	-367.01419	-172.35703	14.45426	261.83658	205.87047	141.30751	258.06033	-103.10065	1208.86804	-489.39685	-67.14751	578.12958	-494.91702	93.47100	580.79626	-495.79260	-59.65456	559.79590	451.02029	98.26203	556.12164	450.90350	
4094	40.930	-172.18005	138.13582	-363.13309	206.88010	16.94875	-367.03741	-172.40619	14.27411	261.75803	204.47385	137.32915	259.65976	-102.01611	1209.74048	-489.86932	-66.92507	578.00940	-494.87204	93.99994	580.86646	-495.73056	-60.45974	559.86841	451.39230	97.63353	556.61230	451.68692	
4095	40.940	-172.12468	133.41983	-362.36026	206.90810	16.95024	-366.98508	-172.44518	14.22840	261.74884	203.68007	132.54466	261.23032	-102.61761	1208.93469	-489.72293	-66.46247	577.98846	-494.66409	94.03004	580.87292	-495.56839	-60.95974	559.96857	451.52533	97.03936	556.33960	451.47183	
4096	40.950	-172.66313	127.88633	-361.67136	206.86667	16.95241	-366.92560	-172.50496	14.25762	261.75549	202.11127	126.53981	262.24033	-102.66715	1209.16736	-489.49030	-65.56334	577.64496	-494.22046	94.00797	580.87085	-495.45050	-61.83308	560.50897	451.74191	95.87041	556.22064	452.35468	
